<svg xmlns="http://www.w3.org/2000/svg" width="13" height="125" viewBox="0 0 13 125">
  <defs>
    <style>
      .cls-1 {
        fill: #ccccce;
        fill-rule: evenodd;
      }
    </style>
  </defs>
  <path class="cls-1" d="M1613.06,495.155a2,2,0,1,0-2.06-2A2.028,2.028,0,0,0,1613.06,495.155Zm0,6.988a2,2,0,1,0,2.06,2A2.028,2.028,0,0,0,1613.06,502.143Zm0,10.98a2,2,0,1,0,2.06,2A2.028,2.028,0,0,0,1613.06,513.123Zm0,10.98a2,2,0,1,0,2.06,2A2.028,2.028,0,0,0,1613.06,524.1Zm0,10.981a2,2,0,1,0,2.06,2A2.028,2.028,0,0,0,1613.06,535.084Zm0,10.981a2,2,0,1,0,2.06,2A2.027,2.027,0,0,0,1613.06,546.065Zm0,10.98a2,2,0,1,0,2.06,2A2.028,2.028,0,0,0,1613.06,557.045Zm0,10.981a2,2,0,1,0,2.06,2A2.027,2.027,0,0,0,1613.06,568.026Zm0,10.98a2,2,0,1,0,2.06,2A2.028,2.028,0,0,0,1613.06,579.006Zm8.88-117.014a2,2,0,1,0-2.06-2A2.028,2.028,0,0,0,1621.94,461.992Zm0,6.987a2,2,0,1,0,2.06,2A2.034,2.034,0,0,0,1621.94,468.979Zm0,10.981a2,2,0,1,0,2.06,2A2.034,2.034,0,0,0,1621.94,479.96Zm0,10.98a2,2,0,1,0,2.06,2A2.034,2.034,0,0,0,1621.94,490.94Zm0,10.981a2,2,0,1,0,2.06,2A2.034,2.034,0,0,0,1621.94,501.921Zm0,10.98a2,2,0,1,0,2.06,2A2.034,2.034,0,0,0,1621.94,512.9Zm0,10.981a2,2,0,1,0,2.06,2A2.034,2.034,0,0,0,1621.94,523.882Zm0,10.98a2,2,0,1,0,2.06,2A2.034,2.034,0,0,0,1621.94,534.862Zm0,10.981a2,2,0,1,0,2.06,2A2.033,2.033,0,0,0,1621.94,545.843Z" transform="translate(-1611 -458)"/>
</svg>
