<svg xmlns="http://www.w3.org/2000/svg" xmlns:xlink="http://www.w3.org/1999/xlink" width="88" height="102" viewBox="0 0 88 102">
  <defs>
    <style>
      .cls-1 {
        fill: #fe3e57;
        fill-rule: evenodd;
        filter: url(#filter);
      }
    </style>
    <filter id="filter" x="112" y="711" width="88" height="102" filterUnits="userSpaceOnUse">
      <feOffset result="offset" dy="5" in="SourceAlpha"/>
      <feGaussianBlur result="blur" stdDeviation="2.236"/>
      <feFlood result="flood" flood-color="#fe3e57" flood-opacity="0.4"/>
      <feComposite result="composite" operator="in" in2="blur"/>
      <feBlend result="blend" in="SourceGraphic"/>
    </filter>
  </defs>
  <path id="shape_3" class="cls-1" d="M180.329,803l-2.066-.526c0.033-.129,3.192-13.05-4-23.588-5.039-7.384-13.906-11.919-26.356-13.475-12.626-1.58-21.672-6.359-26.885-14.207-8.057-12.126-4.019-27.027-3.843-27.655l2.052,0.574c-0.04.144-3.944,14.615,3.575,25.915,4.856,7.3,13.391,11.759,25.366,13.257,13.093,1.637,22.468,6.485,27.864,14.408C183.766,789.047,180.473,802.433,180.329,803Zm13.859-12.545-2.065-.527c0.033-.129,3.191-13.049-4-23.587-5.039-7.385-13.907-11.919-26.356-13.476-12.627-1.579-21.672-6.359-26.886-14.206-8.057-12.127-4.019-27.028-3.843-27.656l2.053,0.574c-0.041.146-3.944,14.615,3.575,25.916,4.856,7.3,13.39,11.758,25.365,13.256,13.094,1.637,22.469,6.486,27.865,14.409C197.626,776.5,194.332,789.887,194.188,790.452Z" transform="translate(-112 -711)"/>
</svg>
